<?xml version="1.0" standalone="no"?>
<!DOCTYPE svg PUBLIC "-//W3C//DTD SVG 20010904//EN"
 "http://www.w3.org/TR/2001/REC-SVG-20010904/DTD/svg10.dtd">
<svg version="1.0" xmlns="http://www.w3.org/2000/svg"
 width="512.000000pt" height="512.000000pt" viewBox="0 0 512.000000 512.000000"
 preserveAspectRatio="xMidYMid meet">

<g transform="translate(0.000000,512.000000) scale(0.100000,-0.100000)"
fill="#000000" stroke="none">
<path d="M2378 4419 c-310 -30 -627 -153 -857 -332 l-63 -49 7 170 c7 164 7
170 -14 191 -26 26 -72 27 -95 2 -16 -17 -20 -56 -29 -281 l-11 -261 22 -22
c20 -20 36 -22 175 -29 289 -12 372 -10 390 10 22 24 22 76 1 93 -12 10 -70
17 -183 24 l-166 10 65 48 c191 143 439 244 692 283 138 21 403 14 536 -15
272 -58 544 -196 739 -375 53 -49 78 -66 100 -66 36 0 49 9 61 40 14 38 0 61
-77 131 -222 199 -503 340 -789 399 -181 36 -335 45 -504 29z"/>
<path d="M3902 3777 c-47 -17 -101 -64 -119 -103 -16 -32 -20 -34 -65 -34 -39
0 -54 -5 -73 -25 -14 -13 -25 -35 -25 -49 l0 -25 -159 -3 c-159 -3 -160 -3
-202 -33 -23 -16 -52 -48 -63 -70 -21 -40 -21 -48 -21 -877 l0 -836 30 -44
c17 -23 49 -53 70 -65 l40 -23 666 3 666 2 36 27 c19 16 46 43 59 60 l23 33 3
838 c3 911 5 863 -52 925 -47 53 -84 62 -241 62 -108 0 -147 3 -149 13 -3 6
-7 24 -10 38 -7 31 -43 49 -100 49 -38 0 -45 3 -50 24 -3 13 -26 41 -50 64
-63 58 -139 76 -214 49z m124 -148 c10 -12 23 -40 29 -62 11 -48 39 -67 98
-67 l37 0 0 -60 0 -60 -215 0 -215 0 0 60 0 60 39 0 c50 0 91 31 91 69 0 16 9
40 21 55 27 34 86 37 115 5z m-406 -278 c0 -43 5 -65 19 -82 l19 -24 310 0
c366 0 352 -4 352 102 l0 63 135 0 c131 0 137 -1 160 -25 l25 -24 0 -796 0
-796 -25 -24 -24 -25 -619 0 c-595 0 -621 1 -643 19 l-24 19 0 807 0 807 24
19 c20 17 40 19 157 19 l134 0 0 -59z"/>
<path d="M3655 3121 c-16 -10 -39 -28 -49 -40 -18 -19 -21 -20 -42 -6 -48 31
-114 4 -114 -47 0 -26 109 -138 135 -138 9 0 53 35 96 77 89 86 99 116 53 152
-33 26 -41 26 -79 2z"/>
<path d="M3900 3023 c-46 -16 -54 -81 -14 -112 26 -20 39 -21 294 -21 255 0
268 1 294 21 17 13 26 30 26 49 0 19 -9 36 -26 49 -26 20 -38 21 -293 20 -146
0 -273 -3 -281 -6z"/>
<path d="M3627 2601 c-38 -36 -44 -38 -62 -25 -31 23 -82 18 -101 -11 -23 -35
-13 -62 45 -119 69 -68 85 -66 177 25 84 83 93 112 48 148 -38 30 -59 26 -107
-18z"/>
<path d="M3880 2510 c-26 -26 -26 -72 1 -96 20 -18 40 -19 299 -19 259 0 279
1 299 19 21 19 28 61 13 82 -20 30 -55 34 -321 34 -258 0 -272 -1 -291 -20z"/>
<path d="M3627 2101 c-38 -36 -44 -38 -62 -25 -31 23 -82 18 -101 -11 -23 -35
-13 -62 45 -119 69 -68 85 -66 177 25 84 83 93 112 48 148 -38 30 -59 26 -107
-18z"/>
<path d="M3880 2010 c-26 -26 -26 -72 1 -96 20 -18 40 -19 299 -19 259 0 279
1 299 19 27 25 27 70 -1 96 -21 19 -34 20 -300 20 -265 0 -279 -1 -298 -20z"/>
<path d="M421 3413 c-18 -9 -42 -31 -52 -47 -18 -29 -19 -64 -19 -702 0 -666
0 -672 21 -698 38 -49 66 -56 216 -56 l138 0 18 -49 c23 -67 95 -144 165 -178
48 -23 70 -28 137 -28 67 0 89 5 137 28 70 34 142 111 165 178 l18 49 332 0
c293 0 333 -2 333 -15 0 -28 47 -109 87 -149 62 -63 133 -91 228 -90 66 0 90
5 137 28 69 33 128 97 159 172 l23 54 61 0 c99 0 95 -16 95 344 l0 308 -151
189 c-83 104 -159 194 -169 199 -11 6 -126 10 -269 10 l-250 0 -3 189 c-3 173
-5 192 -24 218 -48 66 -15 63 -794 63 -637 0 -708 -2 -739 -17z m1419 -748 l0
-625 -238 0 -237 0 -18 49 c-23 66 -95 144 -165 178 -48 24 -70 28 -137 28
-67 0 -89 -4 -137 -28 -70 -34 -142 -112 -165 -178 l-18 -49 -122 0 -123 0 0
625 0 625 680 0 680 0 0 -625z m728 0 l122 -155 0 -235 c0 -264 -5 -281 -54
-170 -53 123 -154 189 -291 190 -95 0 -166 -28 -228 -91 -40 -40 -87 -121 -87
-149 0 -9 -9 -15 -25 -15 l-25 0 0 390 0 390 233 -1 232 0 123 -154z m-1445
-516 c33 -17 77 -60 94 -92 8 -16 14 -53 14 -82 0 -109 -76 -185 -187 -185
-108 0 -184 76 -184 185 0 74 29 125 95 166 34 22 133 26 168 8z m1331 -22
c101 -77 101 -227 0 -304 -30 -22 -49 -28 -103 -31 -58 -3 -71 0 -108 24 -117
77 -116 248 2 320 34 21 50 24 106 22 54 -3 73 -9 103 -31z"/>
<path d="M3167 1302 c-23 -25 -21 -68 3 -92 15 -15 35 -20 78 -21 31 -1 106
-4 166 -8 l109 -6 -79 -57 c-166 -118 -385 -214 -592 -259 -126 -26 -375 -36
-505 -20 -324 41 -626 181 -874 405 -45 41 -69 56 -91 56 -53 0 -80 -60 -47
-106 23 -34 173 -157 265 -218 304 -204 705 -308 1064 -276 352 31 613 132
929 360 l20 15 -6 -168 c-7 -158 -6 -168 13 -187 26 -26 72 -26 96 1 19 21 29
135 35 427 3 157 10 151 -202 162 -276 15 -363 13 -382 -8z"/>
</g>
</svg>
