<?xml version="1.0" standalone="no"?>
<!DOCTYPE svg PUBLIC "-//W3C//DTD SVG 20010904//EN"
 "http://www.w3.org/TR/2001/REC-SVG-20010904/DTD/svg10.dtd">
<svg version="1.0" xmlns="http://www.w3.org/2000/svg"
 width="512.000000pt" height="512.000000pt" viewBox="0 0 512.000000 512.000000"
 preserveAspectRatio="xMidYMid meet">

<g transform="translate(0.000000,512.000000) scale(0.100000,-0.100000)"
fill="#000000" stroke="none">
<path d="M2260 4754 c-123 -17 -318 -63 -439 -106 -91 -31 -309 -134 -400
-188 -30 -18 -52 -26 -49 -19 3 8 23 67 44 132 36 110 38 120 24 145 -20 35
-77 43 -103 14 -19 -21 -167 -453 -167 -488 0 -46 29 -56 253 -85 283 -38 295
-38 319 -9 10 13 18 35 16 48 -5 45 -42 59 -198 79 l-145 19 50 32 c28 18 109
62 180 97 490 242 1043 281 1564 109 1091 -359 1683 -1531 1325 -2624 -55
-168 -149 -361 -246 -503 -40 -60 -82 -124 -93 -142 l-20 -34 21 -28 c28 -37
68 -42 101 -11 40 37 176 249 236 366 156 307 225 585 234 938 6 212 -4 335
-38 504 -188 925 -947 1633 -1879 1754 -150 20 -443 20 -590 0z"/>
<path d="M2540 4393 c-38 -15 -706 -406 -717 -421 -10 -12 -13 -115 -13 -433
0 -383 1 -418 18 -437 20 -23 712 -422 732 -422 20 0 712 399 733 422 16 19
17 54 17 437 0 318 -3 421 -12 434 -7 9 -110 72 -228 140 -118 68 -274 158
-346 199 -138 80 -160 90 -184 81z m303 -304 c144 -84 263 -152 264 -153 6 -4
-534 -310 -547 -310 -26 0 -551 308 -537 315 6 4 129 75 272 158 143 83 266
149 273 146 7 -3 131 -73 275 -156z m-615 -434 l261 -150 1 -318 0 -319 -32
19 c-18 10 -142 82 -275 158 l-243 140 0 313 c0 255 2 313 13 310 8 -2 131
-70 275 -153z m952 -157 l0 -313 -243 -140 c-133 -76 -257 -148 -274 -158
l-33 -19 0 319 1 318 262 152 c144 83 268 152 275 152 9 1 12 -68 12 -311z"/>
<path d="M810 3913 c-64 -72 -174 -249 -241 -388 -152 -316 -219 -610 -219
-965 0 -368 78 -693 243 -1015 300 -584 864 -1015 1507 -1150 221 -47 523 -59
750 -29 288 37 584 140 849 295 30 17 52 25 49 18 -3 -8 -23 -67 -44 -132 -36
-110 -38 -120 -24 -145 20 -35 77 -43 103 -14 19 21 167 454 167 489 0 47 -34
58 -275 87 -125 16 -239 29 -253 29 -30 0 -62 -35 -62 -68 0 -42 41 -62 152
-75 57 -7 123 -16 148 -19 l45 -7 -50 -32 c-27 -18 -108 -62 -180 -97 -439
-218 -947 -271 -1426 -150 -850 216 -1469 936 -1558 1814 -48 466 75 960 336
1347 43 64 87 131 98 149 l20 34 -21 28 c-33 44 -73 43 -114 -4z"/>
<path d="M1330 2709 c-189 -110 -352 -207 -362 -216 -17 -15 -18 -46 -18 -438
0 -322 3 -425 13 -437 19 -24 698 -412 729 -416 20 -3 105 41 370 193 189 108
353 208 365 221 l23 25 0 413 c0 380 -1 415 -17 434 -10 11 -160 102 -333 202
-358 207 -382 220 -407 220 -10 -1 -173 -91 -363 -201z m648 -104 c144 -82
262 -152 262 -156 0 -3 -122 -75 -270 -161 l-271 -156 -275 158 -275 158 203
117 c112 65 232 135 268 156 36 21 72 38 81 36 9 -1 134 -69 277 -152z m-615
-436 l267 -153 0 -318 0 -317 -252 145 c-139 80 -263 152 -275 160 l-23 14 0
316 c0 173 3 313 8 311 4 -2 127 -73 275 -158z m955 -155 l-3 -316 -265 -154
c-146 -84 -268 -154 -272 -154 -5 0 -8 141 -8 313 l0 314 268 156 c147 86 270
156 275 156 4 1 6 -141 5 -315z"/>
<path d="M3375 2893 c-150 -80 -674 -389 -687 -405 -17 -19 -18 -54 -18 -434
l0 -413 23 -24 c32 -35 700 -417 729 -417 22 0 684 375 728 412 19 17 20 29
20 441 l0 424 -22 20 c-37 32 -705 413 -725 413 -10 -1 -31 -8 -48 -17z m294
-269 c130 -75 251 -145 269 -156 l33 -20 -275 -159 -275 -158 -133 77 c-73 43
-195 113 -270 157 -76 43 -138 81 -138 84 0 9 523 309 539 310 7 1 120 -60
250 -135z m-590 -450 l271 -156 0 -314 c0 -173 -3 -314 -7 -314 -5 0 -127 70
-273 154 l-265 154 -3 316 c-1 174 0 316 2 316 2 0 126 -70 275 -156z m957
-470 c-2 -6 -116 -75 -253 -154 -136 -79 -258 -150 -270 -158 l-23 -14 0 319
0 319 113 64 c61 36 184 107 272 158 l160 93 3 -308 c1 -169 0 -313 -2 -319z"/>
</g>
</svg>
